<svg xmlns="http://www.w3.org/2000/svg" xmlns:xlink="http://www.w3.org/1999/xlink" version="1.1" x="0px" y="0px"
    viewBox="0 0 100 125" enable-background="new 0 0 100 100" xml:space="preserve">
    <path
        d="M59.3,28.2c0-5.1-4.2-9.3-9.3-9.3c-5.1,0-9.3,4.2-9.3,9.3c0,5.1,4.2,9.3,9.3,9.3C55.1,37.5,59.3,33.3,59.3,28.2z M44.4,28.2  c0-3.1,2.5-5.6,5.6-5.6c3.1,0,5.6,2.5,5.6,5.6s-2.5,5.6-5.6,5.6C46.9,33.8,44.4,31.3,44.4,28.2z" />
    <path
        d="M59.3,51.3c0-5.1-4.2-9.3-9.3-9.3c-5.1,0-9.3,4.2-9.3,9.3c0,5.1,4.2,9.3,9.3,9.3C55.1,60.6,59.3,56.4,59.3,51.3z M44.4,51.3  c0-3.1,2.5-5.6,5.6-5.6c3.1,0,5.6,2.5,5.6,5.6s-2.5,5.6-5.6,5.6C46.9,56.8,44.4,54.3,44.4,51.3z" />
    <path
        d="M59.3,74.3c0-5.1-4.2-9.3-9.3-9.3c-5.1,0-9.3,4.2-9.3,9.3c0,5.1,4.2,9.3,9.3,9.3C55.1,83.6,59.3,79.5,59.3,74.3z M44.4,74.3  c0-3.1,2.5-5.6,5.6-5.6c3.1,0,5.6,2.5,5.6,5.6c0,3.1-2.5,5.6-5.6,5.6C46.9,79.9,44.4,77.4,44.4,74.3z" />
</svg>