<?xml version="1.0" encoding="utf-8"?>
<!-- Generator: Adobe Illustrator 19.1.1, SVG Export Plug-In . SVG Version: 6.00 Build 0)  -->
<svg version="1.1"  xmlns="http://www.w3.org/2000/svg" xmlns:xlink="http://www.w3.org/1999/xlink" x="0px" y="0px"
	 viewBox="0 0 48 48" enable-background="new 0 0 48 48" xml:space="preserve">
<path fill="#607D8B" d="M29,7c0,2.8-2.2,5-5,5c-2.8,0-5-2.2-5-5c0-2.8,2.2-5,5-5C26.8,2,29,4.2,29,7z M24,19c-2.8,0-5,2.2-5,5
	c0,2.8,2.2,5,5,5c2.8,0,5-2.2,5-5C29,21.2,26.8,19,24,19z M24,36c-2.8,0-5,2.2-5,5c0,2.8,2.2,5,5,5c2.8,0,5-2.2,5-5
	C29,38.2,26.8,36,24,36z"/>
</svg>
