<?xml version="1.0" encoding="UTF-8"?>
<svg xmlns="http://www.w3.org/2000/svg" xmlns:xlink="http://www.w3.org/1999/xlink" viewBox="0 0 50 50" version="1.1" ><g id="surface1" ><path style=" " d="M 5 5 L 5 13 L 13 13 L 13 5 Z M 17 6 L 17 8 L 44 8 L 44 6 Z M 7 7 L 11 7 L 11 11 L 7 11 Z M 17 10 L 17 12 L 40 12 L 40 10 Z M 5 21 L 5 29 L 13 29 L 13 21 Z M 17 22 L 17 24 L 44 24 L 44 22 Z M 7 23 L 11 23 L 11 27 L 7 27 Z M 17 26 L 17 28 L 40 28 L 40 26 Z M 5 37 L 5 45 L 13 45 L 13 37 Z M 17 38 L 17 40 L 44 40 L 44 38 Z M 7 39 L 11 39 L 11 43 L 7 43 Z M 17 42 L 17 44 L 40 44 L 40 42 Z " /></g></svg>
