<?xml version="1.0" encoding="UTF-8"?>
<svg xmlns="http://www.w3.org/2000/svg" xmlns:xlink="http://www.w3.org/1999/xlink" viewBox="0 0 50 50" version="1.1" ><g id="surface1" ><path style=" " d="M 23.96875 0 C 21.324219 0 18.941406 1.417969 17.6875 3.625 C 16.417969 2.730469 14.902344 2.25 13.3125 2.25 C 9.148438 2.25 5.75 5.546875 5.75 9.625 L 5.75 9.6875 C 2.511719 10.050781 0 12.761719 0 16.03125 C 0 19.546875 2.910156 22.40625 6.5 22.40625 C 8.03125 22.40625 9.496094 21.894531 10.65625 20.9375 C 12.195313 22.835938 14.542969 23.96875 17.03125 23.96875 C 19.421875 23.96875 21.671875 22.9375 23.21875 21.1875 C 25.351563 22.300781 27.960938 22.375 30.1875 21.34375 C 31.546875 23.023438 33.597656 24 35.8125 24 C 38.351563 24 40.632813 22.730469 41.9375 20.625 C 42.003906 20.628906 42.085938 20.625 42.15625 20.625 C 46.480469 20.625 50 17.171875 50 12.9375 C 50 8.703125 46.480469 5.25 42.15625 5.25 C 41.441406 5.25 40.746094 5.34375 40.0625 5.53125 C 38.753906 3.152344 36.242188 1.65625 33.4375 1.65625 C 32.085938 1.65625 30.757813 2.03125 29.59375 2.71875 C 28.234375 1.023438 26.179688 0 23.96875 0 Z M 23.6875 23.5625 C 24.296875 25.125 24.796875 27.027344 25.15625 28.75 C 25.644531 27.230469 26.25 25.558594 26.9375 24.0625 C 26.914063 24.0625 26.898438 24.0625 26.875 24.0625 C 25.792969 24.0625 24.699219 23.902344 23.6875 23.5625 Z M 29.65625 23.6875 C 29.542969 23.71875 29.429688 23.71875 29.3125 23.75 C 28.023438 26.210938 26.679688 30.371094 25.90625 33.46875 C 25.792969 33.914063 25.363281 34.25 24.90625 34.25 C 24.886719 34.25 24.894531 34.25 24.875 34.25 C 24.394531 34.222656 24.003906 33.851563 23.9375 33.375 C 23.601563 30.890625 22.867188 27.148438 22 24.6875 C 20.496094 25.515625 18.792969 25.96875 17.03125 25.96875 C 16.890625 25.96875 16.765625 25.945313 16.625 25.9375 C 17.902344 27.640625 19.410156 30.464844 19.78125 34.46875 C 19.835938 35.0625 19.875 35.667969 19.875 36.3125 L 19.875 38.34375 C 19.875 39.519531 19.722656 40.53125 19.5 41.4375 C 21.027344 41.773438 22.890625 42 25 42 C 26.96875 42 28.722656 41.804688 30.1875 41.5 C 29.953125 40.574219 29.8125 39.546875 29.8125 38.34375 L 29.8125 36.3125 C 29.8125 35.648438 29.859375 35.011719 29.9375 34.40625 C 30.472656 30.351563 32.632813 27.539063 34.40625 25.875 C 32.636719 25.605469 30.980469 24.871094 29.65625 23.6875 Z M 30.1875 41.5 C 30.367188 42.210938 30.589844 42.84375 30.875 43.40625 C 34.367188 42.648438 37 41.160156 37 39 C 37 37.207031 35.144531 35.726563 31.90625 34.84375 C 31.847656 35.328125 31.8125 35.824219 31.8125 36.3125 L 31.8125 36.9375 C 33.960938 37.601563 35 38.457031 35 39 C 35 39.804688 33.199219 40.878906 30.1875 41.5 Z M 30.875 43.40625 C 29.066406 43.800781 27.035156 44 25 44 C 22.851563 44 20.695313 43.78125 18.8125 43.34375 C 16.707031 47.601563 12.042969 47.976563 10.875 48 L 10.65625 48 C 10.109375 48 9.667969 48.425781 9.65625 48.96875 C 9.644531 49.511719 10.078125 49.980469 10.625 50 L 39.03125 50 C 39.578125 49.980469 40.011719 49.515625 40 48.96875 C 39.988281 48.425781 39.546875 48 39 48 L 38.78125 48 C 37.617188 47.976563 32.992188 47.601563 30.875 43.40625 Z M 18.8125 43.34375 C 19.089844 42.78125 19.324219 42.148438 19.5 41.4375 C 16.675781 40.808594 15 39.773438 15 39 C 15 38.476563 15.929688 37.683594 17.875 37.03125 L 17.875 36.3125 C 17.875 35.851563 17.847656 35.402344 17.8125 34.9375 C 14.761719 35.832031 13 37.273438 13 39 C 13 41.101563 15.46875 42.566406 18.8125 43.34375 Z " /></g></svg>
