<?xml version="1.0" encoding="utf-8"?>
<svg xmlns="http://www.w3.org/2000/svg" viewBox="0 0 50 50" fill="#000000"><path d="M 12 0 C 10.906937 0 10 0.9069372 10 2 L 10 4 L 4 4 C 2.84 4 2 4.84 2 6 L 2 46 C 2 47.16 2.84 48 4 48 L 39.369141 48 L 37.369141 46 L 4 46 L 4 15 L 46 15 L 46 37.509766 L 48 39.509766 L 48 6 C 48 4.84 47.16 4 46 4 L 40 4 L 40 2 C 40 0.9069372 39.093063 0 38 0 L 36 0 C 34.906937 0 34 0.9069372 34 2 L 34 4 L 16 4 L 16 2 C 16 0.9069372 15.093063 0 14 0 L 12 0 z M 12 2 L 14 2 L 14 8 L 12 8 L 12 2 z M 36 2 L 38 2 L 38 8 L 36 8 L 36 2 z M 4 6 L 10 6 L 10 8 C 10 9.0930628 10.906937 10 12 10 L 14 10 C 15.093063 10 16 9.0930628 16 8 L 16 6 L 34 6 L 34 8 C 34 9.0930628 34.906937 10 36 10 L 38 10 C 39.093063 10 40 9.0930628 40 8 L 40 6 L 46 6 L 46 13 L 4 13 L 4 6 z M 10 20 L 10 29 L 25.169922 29 C 25.059922 28.62 25.060781 28.579297 25.050781 28.529297 C 25.020781 28.379297 25 28.19 25 28 C 25 27.65 25.059688 27.31 25.179688 27 L 12 27 L 12 22 L 38 22 L 38 27 L 35.230469 27 C 35.530469 27.14 35.789531 27.330547 36.019531 27.560547 L 37.460938 29 L 40 29 L 40 20 L 10 20 z M 28.001953 27 C 27.448953 27 27 27.448 27 28 C 27 28.062 27.006578 28.121688 27.017578 28.179688 C 27.028578 28.239687 28.367453 33.098578 28.689453 34.267578 C 28.735453 34.433578 28.821359 34.582078 28.943359 34.705078 L 42.994141 48.804688 C 44.596141 50.399687 47.197828 50.398734 48.798828 48.802734 C 49.699828 48.004734 50 46.907156 50 45.910156 C 50 44.913156 49.599438 44.01675 48.898438 43.21875 L 34.611328 28.978516 C 34.491328 28.858516 34.344641 28.771609 34.181641 28.724609 C 33.043641 28.400609 28.362594 27.064875 28.308594 27.046875 C 28.211594 27.016875 28.108953 27 28.001953 27 z M 29.439453 29.451172 C 30.094453 29.639172 31.005812 29.900813 32.257812 30.257812 L 30.222656 32.300781 C 29.949656 31.308781 29.668453 30.283172 29.439453 29.451172 z M 34.074219 31.267578 L 46.042969 43.197266 L 43.140625 46.113281 L 31.210938 34.144531 L 34.074219 31.267578 z M 10 32 L 10 41 L 32.390625 41 L 30.400391 39 L 12 39 L 12 34 L 26.539062 34 C 26.329062 33.23 26.140234 32.56 25.990234 32 L 10 32 z M 47.455078 44.613281 C 47.818078 45.049281 47.996094 45.476109 47.996094 45.912109 C 47.998094 46.528109 47.819703 46.996641 47.470703 47.306641 L 47.427734 47.345703 L 47.384766 47.388672 C 46.610766 48.159672 45.387453 48.194578 44.564453 47.517578 L 47.455078 44.613281 z" fill="#000000"/></svg>
