<svg xmlns="http://www.w3.org/2000/svg" viewBox="0 0 50 50"><path d="M12 0C10.9 0 10 0.9 10 2L10 4 4 4C2.8 4 2 4.8 2 6L2 46C2 47.2 2.8 48 4 48L39.4 48 37.4 46 4 46 4 15 46 15 46 37.5 48 39.5 48 6C48 4.8 47.2 4 46 4L40 4 40 2C40 0.9 39.1 0 38 0L36 0C34.9 0 34 0.9 34 2L34 4 16 4 16 2C16 0.9 15.1 0 14 0L12 0zM12 2L14 2 14 8 12 8 12 2zM36 2L38 2 38 8 36 8 36 2zM4 6L10 6 10 8C10 9.1 10.9 10 12 10L14 10C15.1 10 16 9.1 16 8L16 6 34 6 34 8C34 9.1 34.9 10 36 10L38 10C39.1 10 40 9.1 40 8L40 6 46 6 46 13 4 13 4 6zM10 20L10 29 25.2 29C25.1 28.6 25.1 28.6 25.1 28.5 25 28.4 25 28.2 25 28 25 27.7 25.1 27.3 25.2 27L12 27 12 22 38 22 38 27 35.2 27C35.5 27.1 35.8 27.3 36 27.6L37.5 29 40 29 40 20 10 20zM28 27C27.4 27 27 27.4 27 28 27 28.1 27 28.1 27 28.2 27 28.2 28.4 33.1 28.7 34.3 28.7 34.4 28.8 34.6 28.9 34.7L43 48.8C44.6 50.4 47.2 50.4 48.8 48.8 49.7 48 50 46.9 50 45.9 50 44.9 49.6 44 48.9 43.2L34.6 29C34.5 28.9 34.3 28.8 34.2 28.7 33 28.4 28.4 27.1 28.3 27 28.2 27 28.1 27 28 27zM29.4 29.5C30.1 29.6 31 29.9 32.3 30.3L30.2 32.3C29.9 31.3 29.7 30.3 29.4 29.5zM34.1 31.3L46 43.2 43.1 46.1 31.2 34.1 34.1 31.3zM10 32L10 41 32.4 41 30.4 39 12 39 12 34 26.5 34C26.3 33.2 26.1 32.6 26 32L10 32zM47.5 44.6C47.8 45 48 45.5 48 45.9 48 46.5 47.8 47 47.5 47.3L47.4 47.3 47.4 47.4C46.6 48.2 45.4 48.2 44.6 47.5L47.5 44.6z"/></svg>