<?xml version="1.0" encoding="UTF-8"?>
<svg xmlns="http://www.w3.org/2000/svg" xmlns:xlink="http://www.w3.org/1999/xlink" viewBox="0 0 50 50" version="1.1"><g id="surface1" ><path style=" " d="M 3 0 L 3 1 L 1 1 L 1 3 L 3 3 L 3 6 L 1 6 L 1 8 L 3 8 L 3 11 L 1 11 L 1 13 L 3 13 L 3 16 L 1 16 L 1 18 L 3 18 L 3 21 L 1 21 L 1 23 L 3 23 L 3 26 L 1 26 L 1 28 L 3 28 L 3 31 L 1 31 L 1 33 L 3 33 L 3 36 L 1 36 L 1 38 L 3 38 L 3 41 L 1 41 L 1 43 L 3 43 L 3 46 L 1 46 L 1 48 L 3 48 L 3 50 L 5 50 L 5 44.59375 C 5 42.234375 5.398438 40.046875 6.125 38 L 16 38 L 16 41 L 6 41 L 6 43 L 16 43 L 16 46 L 6 46 L 6 48 L 16 48 L 16 50 L 18 50 C 18 49.3125 18.046875 48.652344 18.09375 48 L 20 48 L 20 46 L 18.3125 46 C 18.472656 44.953125 18.6875 43.957031 18.96875 43 L 20 43 L 20 41 L 19.65625 41 C 20.855469 37.992188 22.632813 35.382813 24.71875 33 L 28 33 L 28 31 L 26.5625 31 C 27.566406 29.976563 28.640625 28.988281 29.71875 28 L 34 28 L 34 26 L 31.90625 26 C 31.988281 25.925781 32.074219 25.855469 32.15625 25.78125 C 33.171875 24.871094 34.179688 23.941406 35.1875 23 L 39 23 L 39 21 L 37.28125 21 C 38.246094 20.035156 39.179688 19.039063 40.0625 18 L 43 18 L 43 16 L 41.65625 16 C 42.359375 15.046875 43 14.042969 43.59375 13 L 46 13 L 46 11 L 44.625 11 C 45.070313 10.039063 45.449219 9.050781 45.78125 8 L 48 8 L 48 6 L 46.34375 6 C 46.558594 5.046875 46.703125 4.03125 46.8125 3 L 49 3 L 49 1 L 46.96875 1 C 46.980469 0.664063 47 0.34375 47 0 L 45 0 C 45 0.339844 44.980469 0.667969 44.96875 1 L 35 1 L 35 3 L 44.8125 3 C 44.695313 4.035156 44.542969 5.050781 44.3125 6 L 34 6 L 34 8 L 43.71875 8 C 43.359375 9.050781 42.953125 10.046875 42.46875 11 L 31 11 L 31 13 L 41.3125 13 C 40.65625 14.050781 39.9375 15.039063 39.15625 16 L 27 16 L 27 18 L 37.4375 18 C 36.484375 19.03125 35.449219 20.015625 34.40625 21 L 21 21 L 21 23 L 32.25 23 C 31.78125 23.425781 31.320313 23.855469 30.84375 24.28125 C 30.21875 24.84375 29.59375 25.429688 28.96875 26 L 19 26 L 19 28 L 26.8125 28 C 25.800781 28.96875 24.816406 29.964844 23.875 31 L 19 31 L 19 33 L 22.1875 33 C 21.414063 33.964844 20.664063 34.945313 20 36 L 18 36 L 18 22.71875 C 18.386719 22.367188 18.765625 22.007813 19.15625 21.65625 C 22.773438 18.394531 26.449219 15.222656 29.25 11.75 C 32.050781 8.277344 34 4.441406 34 0 L 32 0 C 32 0.335938 31.992188 0.671875 31.96875 1 L 30 1 L 30 3 L 31.625 3 C 31.386719 4.027344 31.054688 5.023438 30.59375 6 L 28 6 L 28 8 L 29.5 8 C 28.964844 8.847656 28.355469 9.671875 27.6875 10.5 C 27.550781 10.671875 27.390625 10.832031 27.25 11 L 25 11 L 25 13 L 25.5 13 C 24.535156 14.011719 23.453125 14.992188 22.375 16 L 18 16 L 18 13 L 20 13 L 20 11 L 18 11 L 18 8 L 20 8 L 20 6 L 18 6 L 18 3 L 20 3 L 20 1 L 18 1 L 18 0 L 16 0 L 16 1 L 6 1 L 6 3 L 16 3 L 16 6 L 6 6 L 6 8 L 16 8 L 16 11 L 6 11 L 6 13 L 16 13 L 16 16 L 6 16 L 6 18 L 16 18 L 16 21 L 6 21 L 6 23 L 14.78125 23 C 13.746094 23.976563 12.726563 24.96875 11.75 26 L 6 26 L 6 28 L 9.9375 28 C 7.96875 30.300781 6.230469 32.761719 5 35.46875 L 5 0 Z M 18 18 L 20.21875 18 C 19.484375 18.664063 18.746094 19.328125 18 20 Z M 16 24.59375 L 16 26 L 14.5625 26 C 15.039063 25.527344 15.507813 25.058594 16 24.59375 Z M 12.5625 28 L 16 28 L 16 31 L 10.0625 31 C 10.84375 29.976563 11.667969 28.972656 12.5625 28 Z M 8.65625 33 L 16 33 L 16 36 L 6.96875 36 C 7.453125 34.972656 8.03125 33.964844 8.65625 33 Z M 18 38 L 18.84375 38 C 18.539063 38.585938 18.261719 39.195313 18 39.8125 Z " /></g></svg>
