<?xml version="1.0" encoding="utf-8"?>
<svg xmlns="http://www.w3.org/2000/svg" viewBox="0 0 100 100" width="100" height="100" ><path d="M 44.146484 11 C 41.309484 11 39 13.400516 39 16.353516 L 39 18 L 33.271484 18 C 24.784484 18 21 21.628672 21 29.763672 L 21 30 L 21 35 C 21 35.265 21.104969 35.520031 21.292969 35.707031 L 26 40.414062 L 26 43.019531 C 23.720904 43.484373 22 45.503605 22 47.917969 L 22 53.917969 C 22 56.332332 23.720904 58.349612 26 58.814453 L 26 76.308594 C 26 83.301594 31.129625 88 38.765625 88 L 61.035156 88 C 68.790156 88 74 83.301594 74 76.308594 L 74 58.814453 C 76.279096 58.349435 78 56.331456 78 53.917969 L 78 47.917969 C 78 45.503605 76.279096 43.484373 74 43.019531 L 74 40.335938 L 78.701172 35.712891 C 78.892172 35.524891 79 35.268 79 35 L 79 30 L 79 29.763672 C 79 21.628672 75.214562 18 66.726562 18 L 61 18 L 61 16.353516 C 61 13.400516 58.690516 11 55.853516 11 L 44.146484 11 z M 44.146484 13 L 55.853516 13 C 57.588516 13 59 14.503516 59 16.353516 L 59 18 L 41 18 L 41 16.353516 C 41 14.503516 42.411484 13 44.146484 13 z M 33.271484 20 L 66.728516 20 C 73.751516 20 76.772281 22.62 76.988281 29 L 23.013672 29 C 23.229672 22.62 26.249484 20 33.271484 20 z M 24 26 C 23.724 26 23.5 26.224 23.5 26.5 C 23.5 26.776 23.724 27 24 27 L 70 27 C 70.276 27 70.5 26.776 70.5 26.5 C 70.5 26.224 70.276 26 70 26 L 24 26 z M 70.5 26.5 C 70.5 26.776 70.724 27 71 27 L 74 27 C 74.276 27 74.5 26.776 74.5 26.5 C 74.5 26.224 74.276 26 74 26 L 71 26 C 70.724 26 70.5 26.224 70.5 26.5 z M 23 31 L 77 31 L 77 33 L 23 33 L 23 31 z M 23 34 L 77 34 L 77 34.580078 L 72.298828 39.203125 C 72.107828 39.391125 72 39.649969 72 39.917969 L 72 43.917969 L 72 57.917969 L 72 76.308594 C 72 78.699141 71.331005 80.562683 70.263672 82 L 29.705078 82 C 28.657058 80.562673 28 78.699185 28 76.308594 L 28 57.917969 L 28 43.917969 L 28 40 C 28 39.735 27.895031 39.479969 27.707031 39.292969 L 23 34.585938 L 23 34 z M 35 37.917969 C 33.346 37.917969 32 39.263969 32 40.917969 L 32 60 C 32 60.276 32.224 60.5 32.5 60.5 C 32.776 60.5 33 60.276 33 60 L 33 40.917969 C 33 39.814969 33.897 38.917969 35 38.917969 C 36.103 38.917969 37 39.814969 37 40.917969 L 37 74.917969 C 37 76.020969 36.103 76.917969 35 76.917969 C 33.897 76.917969 33 76.020969 33 74.917969 L 33 71 C 33 70.724 32.776 70.5 32.5 70.5 C 32.224 70.5 32 70.724 32 71 L 32 74.917969 C 32 76.571969 33.346 77.917969 35 77.917969 C 36.654 77.917969 38 76.571969 38 74.917969 L 38 40.917969 C 38 39.263969 36.654 37.917969 35 37.917969 z M 32.5 60.5 C 32.224 60.5 32 60.724 32 61 L 32 64 C 32 64.276 32.224 64.5 32.5 64.5 C 32.776 64.5 33 64.276 33 64 L 33 61 C 33 60.724 32.776 60.5 32.5 60.5 z M 45 38 C 43.346 38 42 39.346 42 41 L 42 75 C 42 76.654 43.346 78 45 78 C 46.654 78 48 76.654 48 75 L 48 41 C 48 39.346 46.654 38 45 38 z M 55 38 C 53.346 38 52 39.346 52 41 L 52 75 C 52 76.654 53.346 78 55 78 C 56.654 78 58 76.654 58 75 L 58 41 C 58 39.346 56.654 38 55 38 z M 65 38 C 63.346 38 62 39.346 62 41 L 62 75 C 62 76.654 63.346 78 65 78 C 66.654 78 68 76.654 68 75 L 68 41 C 68 39.346 66.654 38 65 38 z M 45 39 C 46.103 39 47 39.897 47 41 L 47 75 C 47 76.103 46.103 77 45 77 C 43.897 77 43 76.103 43 75 L 43 41 C 43 39.897 43.897 39 45 39 z M 55 39 C 56.103 39 57 39.897 57 41 L 57 75 C 57 76.103 56.103 77 55 77 C 53.897 77 53 76.103 53 75 L 53 41 C 53 39.897 53.897 39 55 39 z M 65 39 C 66.103 39 67 39.897 67 41 L 67 75 C 67 76.103 66.103 77 65 77 C 63.897 77 63 76.103 63 75 L 63 41 C 63 39.897 63.897 39 65 39 z M 26 45.087891 L 26 56.746094 C 24.836 56.333094 24 55.221969 24 53.917969 L 24 47.917969 C 24 46.613969 24.836 45.500891 26 45.087891 z M 74 45.087891 C 75.164 45.499891 76 46.613016 76 47.916016 L 76 53.916016 C 76 55.220016 75.164 56.331141 74 56.744141 L 74 45.087891 z M 30.5625 83 L 69.390625 83 C 67.203553 85.130185 63.979596 86 61.035156 86 L 38.765625 86 C 35.874792 86 32.709915 85.130103 30.5625 83 z" /></svg>
